<svg width="32" height="32" viewBox="0 0 32 32" fill="none" xmlns="http://www.w3.org/2000/svg">
<path d="M29.3334 16C29.3334 16.7364 28.7364 17.3333 28 17.3333H6.89335L13.0134 24.4667C13.492 25.0263 13.4263 25.868 12.8667 26.3467C12.307 26.8253 11.4653 26.7597 10.9867 26.2L2.98669 16.8667C2.93892 16.8002 2.89868 16.7287 2.86669 16.6533C2.82656 16.6032 2.79087 16.5497 2.76002 16.4933C2.70225 16.3351 2.67072 16.1684 2.66669 16V16C2.67072 15.8316 2.70225 15.6649 2.76002 15.5067C2.79087 15.4503 2.82656 15.3968 2.86669 15.3467C2.89868 15.2713 2.93892 15.1998 2.98669 15.1333L10.9867 5.80001C11.4653 5.24036 12.307 5.1747 12.8667 5.65334C13.4263 6.13199 13.492 6.97369 13.0134 7.53334L6.89335 14.6667H28C28.7364 14.6667 29.3334 15.2636 29.3334 16Z" fill="#231F20"/>
</svg>
